<?xml version="1.0" encoding="UTF-8" standalone="no"?>
<!DOCTYPE svg PUBLIC "-//W3C//DTD SVG 1.1//EN"
 "http://www.w3.org/Graphics/SVG/1.1/DTD/svg11.dtd">
<!-- Generated by graphviz version 7.1.0 (0)
 -->
<!-- Pages: 1 -->
<svg width="370pt" height="112pt"
 viewBox="0.00 0.00 370.00 111.55" xmlns="http://www.w3.org/2000/svg" xmlns:xlink="http://www.w3.org/1999/xlink">
<g id="graph0" class="graph" transform="scale(1 1) rotate(0) translate(4 107.55)">
<!-- DataObject -->
<g id="node1" class="node">
<title>DataObject</title>
<path fill="#ff0000" fill-opacity="0.466667" stroke="black" d="M132,-73.55C132,-73.55 12,-73.55 12,-73.55 6,-73.55 0,-67.55 0,-61.55 0,-61.55 0,-49.55 0,-49.55 0,-43.55 6,-37.55 12,-37.55 12,-37.55 132,-37.55 132,-37.55 138,-37.55 144,-43.55 144,-49.55 144,-49.55 144,-61.55 144,-61.55 144,-67.55 138,-73.55 132,-73.55"/>
<text text-anchor="middle" x="72" y="-51.85" font-family="sans-serif" font-size="14.00">DataObject</text>
</g>
<!-- InformationElement -->
<g id="node2" class="node">
<title>InformationElement</title>
<path fill="#00ff00" fill-opacity="0.466667" stroke="black" d="M350,-73.55C350,-73.55 230,-73.55 230,-73.55 224,-73.55 218,-67.55 218,-61.55 218,-61.55 218,-49.55 218,-49.55 218,-43.55 224,-37.55 230,-37.55 230,-37.55 350,-37.55 350,-37.55 356,-37.55 362,-43.55 362,-49.55 362,-49.55 362,-61.55 362,-61.55 362,-67.55 356,-73.55 350,-73.55"/>
<text text-anchor="middle" x="290" y="-51.85" font-family="sans-serif" font-size="14.00">InformationElement</text>
</g>
<!-- DataObject&#45;&gt;InformationElement -->
<g id="edge1" class="edge">
<title>DataObject:n&#45;&gt;InformationElement:n</title>
<path fill="none" stroke="#777777" d="M72,-74.55C72,-95.88 241.15,-98.43 281.45,-82.17"/>
<polygon fill="#777777" stroke="#777777" points="283.74,-84.83 288.87,-75.56 279.08,-79.6 283.74,-84.83"/>
<text text-anchor="middle" x="181" y="-95.55" font-family="sans-serif" font-size="10.00" fill="#777777">isPartOf</text>
</g>
<!-- InformationElement&#45;&gt;DataObject -->
<g id="edge2" class="edge">
<title>InformationElement:s&#45;&gt;DataObject:s</title>
<path fill="none" stroke="#777777" d="M290,-36.55C290,8.11 104.73,11.6 75.78,-26.08"/>
<polygon fill="#777777" stroke="#777777" points="72.62,-24.53 72.51,-35.12 79.21,-26.91 72.62,-24.53"/>
<text text-anchor="middle" x="181" y="-3.55" font-family="sans-serif" font-size="10.00" fill="#777777">hasPart</text>
</g>
</g>
</svg>
