<?xml version="1.0" encoding="UTF-8" standalone="no"?>
<!DOCTYPE svg PUBLIC "-//W3C//DTD SVG 1.1//EN"
 "http://www.w3.org/Graphics/SVG/1.1/DTD/svg11.dtd">
<!-- Generated by graphviz version 7.1.0 (0)
 -->
<!-- Pages: 1 -->
<svg width="335pt" height="174pt"
 viewBox="0.00 0.00 335.00 174.00" xmlns="http://www.w3.org/2000/svg" xmlns:xlink="http://www.w3.org/1999/xlink">
<g id="graph0" class="graph" transform="scale(1 1) rotate(0) translate(4 170)">
<g id="clust1" class="cluster">
<title>cluster_graph2</title>
<g id="a_clust1"><a xlink:title="example:B">
<path fill="none" stroke="lightgrey" d="M20,-8C20,-8 307,-8 307,-8 313,-8 319,-14 319,-20 319,-20 319,-67 319,-67 319,-73 313,-79 307,-79 307,-79 20,-79 20,-79 14,-79 8,-73 8,-67 8,-67 8,-20 8,-20 8,-14 14,-8 20,-8"/>
<text text-anchor="middle" x="163.5" y="-67" font-family="sans-serif" font-size="10.00">example:B</text>
</a>
</g>
</g>
<g id="clust2" class="cluster">
<title>cluster_graph1</title>
<g id="a_clust2"><a xlink:title="example:A">
<path fill="none" stroke="lightgrey" d="M20,-87C20,-87 307,-87 307,-87 313,-87 319,-93 319,-99 319,-99 319,-146 319,-146 319,-152 313,-158 307,-158 307,-158 20,-158 20,-158 14,-158 8,-152 8,-146 8,-146 8,-99 8,-99 8,-93 14,-87 20,-87"/>
<text text-anchor="middle" x="163.5" y="-146" font-family="sans-serif" font-size="10.00">example:A</text>
</a>
</g>
</g>
<!-- item2 -->
<g id="node1" class="node">
<title>item2</title>
<g id="a_node1"><a xlink:title="example:item2">
<path fill="none" stroke="black" d="M118,-52C118,-52 28,-52 28,-52 22,-52 16,-46 16,-40 16,-40 16,-28 16,-28 16,-22 22,-16 28,-16 28,-16 118,-16 118,-16 124,-16 130,-22 130,-28 130,-28 130,-40 130,-40 130,-46 124,-52 118,-52"/>
<text text-anchor="middle" x="73" y="-30.3" font-family="sans-serif" font-size="14.00">example:item2</text>
</a>
</g>
</g>
<!-- type2 -->
<g id="node2" class="node">
<title>type2</title>
<g id="a_node2"><a xlink:title="rdfs:Resource">
<path fill="none" stroke="black" d="M299,-52C299,-52 216,-52 216,-52 210,-52 204,-46 204,-40 204,-40 204,-28 204,-28 204,-22 210,-16 216,-16 216,-16 299,-16 299,-16 305,-16 311,-22 311,-28 311,-28 311,-40 311,-40 311,-46 305,-52 299,-52"/>
<text text-anchor="middle" x="257.5" y="-30.3" font-family="sans-serif" font-size="14.00">rdfs:Resource</text>
</a>
</g>
</g>
<!-- item2&#45;&gt;type2 -->
<g id="edge1" class="edge">
<title>item2&#45;&gt;type2</title>
<g id="a_edge1"><a xlink:title="rdf:type">
<path fill="none" stroke="black" d="M130.25,-34C149.86,-34 172.02,-34 192.23,-34"/>
<polygon fill="black" stroke="black" points="192.04,-37.5 202.04,-34 192.04,-30.5 192.04,-37.5"/>
</a>
</g>
<g id="a_edge1&#45;label"><a xlink:title="rdf:type">
<text text-anchor="middle" x="167" y="-37" font-family="sans-serif" font-size="10.00">rdf:type</text>
</a>
</g>
</g>
<!-- item1 -->
<g id="node3" class="node">
<title>item1</title>
<g id="a_node3"><a xlink:title="example:item1">
<path fill="none" stroke="black" d="M118,-131C118,-131 28,-131 28,-131 22,-131 16,-125 16,-119 16,-119 16,-107 16,-107 16,-101 22,-95 28,-95 28,-95 118,-95 118,-95 124,-95 130,-101 130,-107 130,-107 130,-119 130,-119 130,-125 124,-131 118,-131"/>
<text text-anchor="middle" x="73" y="-109.3" font-family="sans-serif" font-size="14.00">example:item1</text>
</a>
</g>
</g>
<!-- type1 -->
<g id="node4" class="node">
<title>type1</title>
<g id="a_node4"><a xlink:title="rdfs:Resource">
<path fill="none" stroke="black" d="M299,-131C299,-131 216,-131 216,-131 210,-131 204,-125 204,-119 204,-119 204,-107 204,-107 204,-101 210,-95 216,-95 216,-95 299,-95 299,-95 305,-95 311,-101 311,-107 311,-107 311,-119 311,-119 311,-125 305,-131 299,-131"/>
<text text-anchor="middle" x="257.5" y="-109.3" font-family="sans-serif" font-size="14.00">rdfs:Resource</text>
</a>
</g>
</g>
<!-- item1&#45;&gt;type1 -->
<g id="edge2" class="edge">
<title>item1&#45;&gt;type1</title>
<g id="a_edge2"><a xlink:title="rdf:type">
<path fill="none" stroke="black" d="M130.25,-113C149.86,-113 172.02,-113 192.23,-113"/>
<polygon fill="black" stroke="black" points="192.04,-116.5 202.04,-113 192.04,-109.5 192.04,-116.5"/>
</a>
</g>
<g id="a_edge2&#45;label"><a xlink:title="rdf:type">
<text text-anchor="middle" x="167" y="-116" font-family="sans-serif" font-size="10.00">rdf:type</text>
</a>
</g>
</g>
</g>
</svg>
