<svg xmlns="http://www.w3.org/2000/svg" width="16" viewBox="0 0 16 16" version="1.1" height="16"> <g id="icon-multivalue" class="icon"><rect width="16" height="16" fill="#00000000"/><g transform="translate(-320.98275,227.01492)"><path d="m 324.17969,-227.01562 c -1.2016,0 -2.19727,1.00124 -2.19727,2.20117 V -224 h 2 v -0.81445 c 0,-0.1309 0.0735,-0.20117 0.19727,-0.20117 h 9.60742 c 0.12378,0 0.19531,0.0703 0.19531,0.20117 V -224 h 2 v -0.81445 c 0,-1.19993 -0.99372,-2.20117 -2.19531,-2.20117 z" /><path d="m 324.17969,-215.00781 c -1.2016,0 -2.19727,1.00124 -2.19727,2.20117 v 1.83008 h 2 v -1.83008 c 0,-0.13089 0.0735,-0.20117 0.19727,-0.20117 h 9.60742 c 0.12378,0 0.19531,0.0703 0.19531,0.20117 v 1.78711 h 2 v -1.78711 c 0,-1.19993 -0.99372,-2.20117 -2.19531,-2.20117 z" /><path d="m 324.17969,-223.01562 c -1.2016,0 -2.19727,1.00124 -2.19727,2.20117 V -220 h 2 v -0.81445 c 0,-0.1309 0.0735,-0.20117 0.19727,-0.20117 h 9.60742 c 0.12378,0 0.19531,0.0703 0.19531,0.20117 V -220 h 2 v -0.81445 c 0,-1.19993 -0.99372,-2.20117 -2.19531,-2.20117 z" /><path d="m 324.17969,-219.01562 c -1.2016,0 -2.19727,1.00124 -2.19727,2.20117 V -216 h 2 v -0.81445 c 0,-0.1309 0.0735,-0.20117 0.19727,-0.20117 h 9.60742 c 0.12378,0 0.19531,0.0703 0.19531,0.20117 V -216 h 2 v -0.81445 c 0,-1.19993 -0.99372,-2.20117 -2.19531,-2.20117 z" /></g></g></svg>
