<?xml version="1.0" encoding="UTF-8" standalone="no"?>
<!DOCTYPE svg PUBLIC "-//W3C//DTD SVG 1.1//EN"
 "http://www.w3.org/Graphics/SVG/1.1/DTD/svg11.dtd">
<!-- Generated by graphviz version 7.1.0 (0)
 -->
<!-- Pages: 1 -->
<svg width="398pt" height="118pt"
 viewBox="0.00 0.00 398.00 118.24" xmlns="http://www.w3.org/2000/svg" xmlns:xlink="http://www.w3.org/1999/xlink">
<g id="graph0" class="graph" transform="scale(1 1) rotate(0) translate(4 114.24)">
<!-- DataObject -->
<g id="node1" class="node">
<title>DataObject</title>
<path fill="#ff0000" fill-opacity="0.466667" stroke="black" d="M132,-78.24C132,-78.24 12,-78.24 12,-78.24 6,-78.24 0,-72.24 0,-66.24 0,-66.24 0,-54.24 0,-54.24 0,-48.24 6,-42.24 12,-42.24 12,-42.24 132,-42.24 132,-42.24 138,-42.24 144,-48.24 144,-54.24 144,-54.24 144,-66.24 144,-66.24 144,-72.24 138,-78.24 132,-78.24"/>
<text text-anchor="middle" x="72" y="-56.54" font-family="sans-serif" font-size="14.00">DataObject</text>
</g>
<!-- InformationElement -->
<g id="node2" class="node">
<title>InformationElement</title>
<path fill="#00ff00" fill-opacity="0.466667" stroke="black" d="M378,-78.24C378,-78.24 258,-78.24 258,-78.24 252,-78.24 246,-72.24 246,-66.24 246,-66.24 246,-54.24 246,-54.24 246,-48.24 252,-42.24 258,-42.24 258,-42.24 378,-42.24 378,-42.24 384,-42.24 390,-48.24 390,-54.24 390,-54.24 390,-66.24 390,-66.24 390,-72.24 384,-78.24 378,-78.24"/>
<text text-anchor="middle" x="318" y="-56.54" font-family="sans-serif" font-size="14.00">InformationElement</text>
</g>
<!-- DataObject&#45;&gt;InformationElement -->
<g id="edge1" class="edge">
<title>DataObject:n&#45;&gt;InformationElement:n</title>
<path fill="none" stroke="#777777" d="M72,-79.24C72,-103.59 267.13,-106.25 309.82,-87.23"/>
<polygon fill="#777777" stroke="#777777" points="312.2,-89.79 316.92,-80.3 307.32,-84.78 312.2,-89.79"/>
<text text-anchor="middle" x="195" y="-102.24" font-family="sans-serif" font-size="10.00" fill="#777777">interpretedAs</text>
</g>
<!-- InformationElement&#45;&gt;DataObject -->
<g id="edge2" class="edge">
<title>InformationElement:s&#45;&gt;DataObject:s</title>
<path fill="none" stroke="#777777" d="M318,-41.24C318,9.58 105.38,13.15 75.48,-30.52"/>
<polygon fill="#777777" stroke="#777777" points="72.22,-29.21 72.47,-39.8 78.88,-31.37 72.22,-29.21"/>
<text text-anchor="middle" x="195" y="-5.24" font-family="sans-serif" font-size="10.00" fill="#777777">isStoredAs</text>
</g>
</g>
</svg>
