<?xml version="1.0" encoding="UTF-8" standalone="no"?>
<!DOCTYPE svg PUBLIC "-//W3C//DTD SVG 1.1//EN"
 "http://www.w3.org/Graphics/SVG/1.1/DTD/svg11.dtd">
<!-- Generated by graphviz version 7.1.0 (0)
 -->
<!-- Pages: 1 -->
<svg width="443pt" height="174pt"
 viewBox="0.00 0.00 443.00 174.00" xmlns="http://www.w3.org/2000/svg" xmlns:xlink="http://www.w3.org/1999/xlink">
<g id="graph0" class="graph" transform="scale(1 1) rotate(0) translate(4 170)">
<g id="clust1" class="cluster">
<title>cluster_session</title>
<g id="a_clust1"><a xlink:title="User session">
<path fill="none" stroke="lightgrey" d="M20,-20C20,-20 196,-20 196,-20 202,-20 208,-26 208,-32 208,-32 208,-133 208,-133 208,-139 202,-145 196,-145 196,-145 20,-145 20,-145 14,-145 8,-139 8,-133 8,-133 8,-32 8,-32 8,-26 14,-20 20,-20"/>
<text text-anchor="middle" x="108" y="-133" font-family="sans-serif" font-size="10.00">User session</text>
</a>
</g>
</g>
<g id="clust2" class="cluster">
<title>cluster_client1</title>
<g id="a_clust2"><a xlink:title="Sandbox #1">
<polygon fill="none" stroke="lightgrey" stroke-dasharray="5,2" points="228,-87 228,-158 427,-158 427,-87 228,-87"/>
<text text-anchor="middle" x="327.5" y="-146" font-family="sans-serif" font-size="10.00">Sandbox #1</text>
</a>
</g>
</g>
<g id="clust3" class="cluster">
<title>cluster_client2</title>
<g id="a_clust3"><a xlink:title="Sandbox #2">
<polygon fill="none" stroke="lightgrey" stroke-dasharray="5,2" points="228,-8 228,-79 427,-79 427,-8 228,-8"/>
<text text-anchor="middle" x="327.5" y="-67" font-family="sans-serif" font-size="10.00">Sandbox #2</text>
</a>
</g>
</g>
<!-- Portal -->
<g id="node1" class="node">
<title>Portal</title>
<path fill="none" stroke="black" d="M188,-91C188,-91 156,-91 156,-91 150,-91 144,-85 144,-79 144,-79 144,-67 144,-67 144,-61 150,-55 156,-55 156,-55 188,-55 188,-55 194,-55 200,-61 200,-67 200,-67 200,-79 200,-79 200,-85 194,-91 188,-91"/>
<text text-anchor="middle" x="172" y="-69.3" font-family="sans-serif" font-size="14.00">Portal</text>
</g>
<!-- App A -->
<g id="node4" class="node">
<title>App A</title>
<path fill="none" stroke="black" d="M279,-131C279,-131 248,-131 248,-131 242,-131 236,-125 236,-119 236,-119 236,-107 236,-107 236,-101 242,-95 248,-95 248,-95 279,-95 279,-95 285,-95 291,-101 291,-107 291,-107 291,-119 291,-119 291,-125 285,-131 279,-131"/>
<text text-anchor="middle" x="263.5" y="-109.3" font-family="sans-serif" font-size="14.00">App A</text>
</g>
<!-- Portal&#45;&#45;App A -->
<g id="edge5" class="edge">
<title>Portal&#45;&#45;App A</title>
<path fill="none" stroke="black" d="M200.34,-85.22C209.06,-89.12 218.84,-93.49 228,-97.58"/>
</g>
<!-- App B -->
<g id="node6" class="node">
<title>App B</title>
<path fill="none" stroke="black" d="M279,-52C279,-52 248,-52 248,-52 242,-52 236,-46 236,-40 236,-40 236,-28 236,-28 236,-22 242,-16 248,-16 248,-16 279,-16 279,-16 285,-16 291,-22 291,-28 291,-28 291,-40 291,-40 291,-46 285,-52 279,-52"/>
<text text-anchor="middle" x="263.5" y="-30.3" font-family="sans-serif" font-size="14.00">App B</text>
</g>
<!-- Portal&#45;&#45;App B -->
<g id="edge6" class="edge">
<title>Portal&#45;&#45;App B</title>
<path fill="none" stroke="black" d="M200.34,-61.09C209.06,-57.28 218.84,-53.03 228,-49.03"/>
</g>
<!-- Provider #1 -->
<g id="node2" class="node">
<title>Provider #1</title>
<path fill="none" stroke="black" d="M108,-114.73C108,-116.53 87.38,-118 62,-118 36.62,-118 16,-116.53 16,-114.73 16,-114.73 16,-85.27 16,-85.27 16,-83.47 36.62,-82 62,-82 87.38,-82 108,-83.47 108,-85.27 108,-85.27 108,-114.73 108,-114.73"/>
<path fill="none" stroke="black" d="M108,-114.73C108,-112.92 87.38,-111.45 62,-111.45 36.62,-111.45 16,-112.92 16,-114.73"/>
<text text-anchor="middle" x="62" y="-96.3" font-family="sans-serif" font-size="14.00">Provider #1</text>
</g>
<!-- Provider #1&#45;&#45;Portal -->
<g id="edge1" class="edge">
<title>Provider #1&#45;&#45;Portal</title>
<path fill="none" stroke="black" d="M108.49,-88.63C120.48,-85.63 133.04,-82.49 143.74,-79.82"/>
</g>
<!-- Provider #2 -->
<g id="node3" class="node">
<title>Provider #2</title>
<path fill="none" stroke="black" d="M108,-60.73C108,-62.53 87.38,-64 62,-64 36.62,-64 16,-62.53 16,-60.73 16,-60.73 16,-31.27 16,-31.27 16,-29.47 36.62,-28 62,-28 87.38,-28 108,-29.47 108,-31.27 108,-31.27 108,-60.73 108,-60.73"/>
<path fill="none" stroke="black" d="M108,-60.73C108,-58.92 87.38,-57.45 62,-57.45 36.62,-57.45 16,-58.92 16,-60.73"/>
<text text-anchor="middle" x="62" y="-42.3" font-family="sans-serif" font-size="14.00">Provider #2</text>
</g>
<!-- Provider #2&#45;&#45;Portal -->
<g id="edge2" class="edge">
<title>Provider #2&#45;&#45;Portal</title>
<path fill="none" stroke="black" d="M108.49,-57.37C120.48,-60.37 133.04,-63.51 143.74,-66.18"/>
</g>
<!-- Provider #3 -->
<g id="node5" class="node">
<title>Provider #3</title>
<path fill="none" stroke="black" d="M419,-127.73C419,-129.53 398.38,-131 373,-131 347.62,-131 327,-129.53 327,-127.73 327,-127.73 327,-98.27 327,-98.27 327,-96.47 347.62,-95 373,-95 398.38,-95 419,-96.47 419,-98.27 419,-98.27 419,-127.73 419,-127.73"/>
<path fill="none" stroke="black" d="M419,-127.73C419,-125.92 398.38,-124.45 373,-124.45 347.62,-124.45 327,-125.92 327,-127.73"/>
<text text-anchor="middle" x="373" y="-109.3" font-family="sans-serif" font-size="14.00">Provider #3</text>
</g>
<!-- App A&#45;&#45;Provider #3 -->
<g id="edge3" class="edge">
<title>App A&#45;&#45;Provider #3</title>
<path fill="none" stroke="black" d="M291.35,-113C302.05,-113 314.66,-113 326.69,-113"/>
</g>
<!-- Provider #4 -->
<!-- App B&#45;&#45;Provider #4 -->
</g>
</svg>
