<?xml version="1.0" encoding="UTF-8" standalone="no"?>
<!DOCTYPE svg PUBLIC "-//W3C//DTD SVG 1.1//EN"
 "http://www.w3.org/Graphics/SVG/1.1/DTD/svg11.dtd">
<!-- Generated by graphviz version 7.1.0 (0)
 -->
<!-- Title: G Pages: 1 -->
<svg width="504pt" height="152pt"
 viewBox="0.00 0.00 504.48 152.00" xmlns="http://www.w3.org/2000/svg" xmlns:xlink="http://www.w3.org/1999/xlink">
<g id="graph0" class="graph" transform="scale(1 1) rotate(0) translate(4 148)">
<title>G</title>
<!-- nmm:MusicPiece -->
<g id="node1" class="node">
<title>nmm:MusicPiece</title>
<path fill="none" stroke="black" d="M300.69,-144C300.69,-144 195.69,-144 195.69,-144 189.69,-144 183.69,-138 183.69,-132 183.69,-132 183.69,-120 183.69,-120 183.69,-114 189.69,-108 195.69,-108 195.69,-108 300.69,-108 300.69,-108 306.69,-108 312.69,-114 312.69,-120 312.69,-120 312.69,-132 312.69,-132 312.69,-138 306.69,-144 300.69,-144"/>
<text text-anchor="middle" x="248.19" y="-122.3" font-family="sans-serif" font-size="14.00">nmm:MusicPiece</text>
</g>
<!-- song -->
<g id="node2" class="node">
<title>song</title>
<ellipse fill="none" stroke="black" stroke-dasharray="5,2" cx="31.85" cy="-72" rx="31.7" ry="18"/>
<text text-anchor="middle" x="31.85" y="-68.3" font-family="sans-serif" font-size="14.00">song</text>
</g>
<!-- song&#45;&gt;nmm:MusicPiece -->
<g id="edge1" class="edge">
<title>song&#45;&gt;nmm:MusicPiece</title>
<path fill="none" stroke="black" d="M60.14,-80.73C67.14,-82.87 74.67,-85.1 81.69,-87 111.12,-94.98 143.75,-102.87 172.2,-109.44"/>
<polygon fill="black" stroke="black" points="171.28,-112.82 181.81,-111.65 172.85,-106 171.28,-112.82"/>
<text text-anchor="middle" x="123.69" y="-110" font-family="sans-serif" font-size="10.00">rdf:type</text>
</g>
<!-- songTitle -->
<g id="node3" class="node">
<title>songTitle</title>
<ellipse fill="none" stroke="black" stroke-dasharray="5,2" cx="248.19" cy="-72" rx="50.09" ry="18"/>
<text text-anchor="middle" x="248.19" y="-68.3" font-family="sans-serif" font-size="14.00">songTitle</text>
</g>
<!-- song&#45;&gt;songTitle -->
<g id="edge2" class="edge">
<title>song&#45;&gt;songTitle</title>
<path fill="none" stroke="black" d="M64.02,-72C95.93,-72 146.37,-72 186.25,-72"/>
<polygon fill="black" stroke="black" points="186.21,-75.5 196.21,-72 186.21,-68.5 186.21,-75.5"/>
<text text-anchor="middle" x="123.69" y="-75" font-family="sans-serif" font-size="10.00">nie:title</text>
</g>
<!-- album -->
<g id="node4" class="node">
<title>album</title>
<ellipse fill="none" stroke="black" stroke-dasharray="5,2" cx="248.19" cy="-18" rx="37.89" ry="18"/>
<text text-anchor="middle" x="248.19" y="-14.3" font-family="sans-serif" font-size="14.00">album</text>
</g>
<!-- song&#45;&gt;album -->
<g id="edge3" class="edge">
<title>song&#45;&gt;album</title>
<path fill="none" stroke="black" d="M60.14,-63.27C67.14,-61.13 74.67,-58.9 81.69,-57 122.09,-46.05 168.51,-35.27 201.88,-27.82"/>
<polygon fill="black" stroke="black" points="202.63,-31.24 211.64,-25.66 201.11,-24.41 202.63,-31.24"/>
<text text-anchor="middle" x="123.69" y="-60" font-family="sans-serif" font-size="10.00">nmm:MusicAlbum</text>
</g>
<!-- albumTitle -->
<g id="node5" class="node">
<title>albumTitle</title>
<ellipse fill="none" stroke="black" stroke-dasharray="5,2" cx="440.59" cy="-18" rx="55.79" ry="18"/>
<text text-anchor="middle" x="440.59" y="-14.3" font-family="sans-serif" font-size="14.00">albumTitle</text>
</g>
<!-- album&#45;&gt;albumTitle -->
<g id="edge4" class="edge">
<title>album&#45;&gt;albumTitle</title>
<path fill="none" stroke="black" d="M286.36,-18C311.01,-18 344.05,-18 373.14,-18"/>
<polygon fill="black" stroke="black" points="372.97,-21.5 382.97,-18 372.97,-14.5 372.97,-21.5"/>
<text text-anchor="middle" x="348.69" y="-21" font-family="sans-serif" font-size="10.00">nie:title</text>
</g>
</g>
</svg>
