<?xml version="1.0" encoding="UTF-8"?>
<svg width="256" height="256" version="1.1"
     xmlns="http://www.w3.org/2000/svg"
     xmlns:xlink="http://www.w3.org/1999/xlink">
  <defs>
    <linearGradient id="Gradient" x1="0" x2="0" y1="0" y2="1">
      <stop offset="0%" style="stop-color:#E01B24;stop-opacity:1" />
      <stop offset="100%" style="stop-color:#C061CB;stop-opacity:1" />
    </linearGradient>
    <filter id="alpha-to-white">
      <feColorMatrix in="SourceGraphic" type="matrix"
                     values="0 0 0 1 0
                             0 0 0 1 0
                             0 0 0 1 0
                             0 0 0 1 0"/>
    </filter>
    <g id="child-svg">
<svg height="16px" viewBox="0 0 16 16" width="16px" xmlns="http://www.w3.org/2000/svg">
    <g fill="#241f31">
        <path d="m 11.5 10.644531 c -0.863281 0.15625 -1.175781 1.234375 -0.53125 1.828125 l 3.195312 3.195313 c 1.019532 0.996093 2.515626 -0.53125 1.496094 -1.53125 l -3.195312 -3.195313 c -0.25 -0.253906 -0.613282 -0.367187 -0.964844 -0.296875 z m 0 0"/>
        <path d="m 6.917969 0 c -3.808594 0 -6.917969 3.109375 -6.917969 6.917969 c 0 3.808593 3.109375 6.917969 6.917969 6.917969 c 3.808593 0 6.921875 -3.109376 6.921875 -6.917969 c 0 -3.808594 -3.113282 -6.917969 -6.921875 -6.917969 z m 0 2.128906 c 2.660156 0 4.792969 2.132813 4.792969 4.789063 c 0 2.660156 -2.132813 4.789062 -4.792969 4.789062 c -2.65625 0 -4.789063 -2.128906 -4.789063 -4.789062 c 0 -2.65625 2.132813 -4.789063 4.789063 -4.789063 z m 0 0"/>
    </g>
</svg>
</g>
  </defs>
  <rect
      width="256"
      height="256"
      fill="url(#Gradient)"
      ry="128"
      x="0"
      y="0" />
  <use xlink:href="#child-svg" filter="url(#alpha-to-white)"
       transform="matrix(8,0,0,8,64,64)" />
</svg>
