<?xml version="1.0" encoding="UTF-8" standalone="no"?>
<!DOCTYPE svg PUBLIC "-//W3C//DTD SVG 1.1//EN"
 "http://www.w3.org/Graphics/SVG/1.1/DTD/svg11.dtd">
<!-- Generated by graphviz version 7.1.0 (0)
 -->
<!-- Pages: 1 -->
<svg width="436pt" height="257pt"
 viewBox="0.00 0.00 436.00 257.00" xmlns="http://www.w3.org/2000/svg" xmlns:xlink="http://www.w3.org/1999/xlink">
<g id="graph0" class="graph" transform="scale(1 1) rotate(0) translate(4 253)">
<g id="clust1" class="cluster">
<title>cluster_do</title>
<polygon fill="none" stroke="none" points="8,-8 8,-241 204,-241 204,-8 8,-8"/>
<text text-anchor="middle" x="106" y="-229" font-family="sans-serif" font-size="10.00">DataObject</text>
</g>
<g id="clust2" class="cluster">
<title>cluster_ie</title>
<polygon fill="none" stroke="none" points="224,-8 224,-241 420,-241 420,-8 224,-8"/>
<text text-anchor="middle" x="322" y="-229" font-family="sans-serif" font-size="10.00">InformationElement</text>
</g>
<!-- a -->
<g id="node1" class="node">
<title>a</title>
<path fill="#ff0000" fill-opacity="0.466667" stroke="black" d="M184,-214C184,-214 28,-214 28,-214 22,-214 16,-208 16,-202 16,-202 16,-190 16,-190 16,-184 22,-178 28,-178 28,-178 184,-178 184,-178 190,-178 196,-184 196,-190 196,-190 196,-202 196,-202 196,-208 190,-214 184,-214"/>
<text text-anchor="middle" x="106" y="-192.3" font-family="sans-serif" font-size="14.00">FileDataObject</text>
</g>
<!-- a2 -->
<g id="node5" class="node">
<title>a2</title>
<path fill="#00ff00" fill-opacity="0.466667" stroke="black" d="M400,-214C400,-214 244,-214 244,-214 238,-214 232,-208 232,-202 232,-202 232,-190 232,-190 232,-184 238,-178 244,-178 244,-178 400,-178 400,-178 406,-178 412,-184 412,-190 412,-190 412,-202 412,-202 412,-208 406,-214 400,-214"/>
<text text-anchor="middle" x="322" y="-192.3" font-family="sans-serif" font-size="14.00">Folder</text>
</g>
<!-- a&#45;&gt;a2 -->
<g id="edge1" class="edge">
<title>a&#45;&gt;a2</title>
<path fill="none" stroke="#777777" d="M207.52,-196C215.56,-196 223.64,-196 231.59,-196"/>
<polygon fill="#777777" stroke="#777777" points="207.72,-192.5 197.72,-196 207.72,-199.5 207.72,-192.5"/>
</g>
<!-- b -->
<g id="node2" class="node">
<title>b</title>
<path fill="#ff0000" fill-opacity="0.466667" stroke="black" d="M184,-160C184,-160 28,-160 28,-160 22,-160 16,-154 16,-148 16,-148 16,-136 16,-136 16,-130 22,-124 28,-124 28,-124 184,-124 184,-124 190,-124 196,-130 196,-136 196,-136 196,-148 196,-148 196,-154 190,-160 184,-160"/>
<text text-anchor="middle" x="106" y="-138.3" font-family="sans-serif" font-size="14.00">FileDataObject</text>
</g>
<!-- b2 -->
<g id="node6" class="node">
<title>b2</title>
<path fill="#00ff00" fill-opacity="0.466667" stroke="black" d="M400,-160C400,-160 244,-160 244,-160 238,-160 232,-154 232,-148 232,-148 232,-136 232,-136 232,-130 238,-124 244,-124 244,-124 400,-124 400,-124 406,-124 412,-130 412,-136 412,-136 412,-148 412,-148 412,-154 406,-160 400,-160"/>
<text text-anchor="middle" x="322" y="-138.3" font-family="sans-serif" font-size="14.00">Document</text>
</g>
<!-- b&#45;&gt;b2 -->
<g id="edge3" class="edge">
<title>b&#45;&gt;b2</title>
<path fill="none" stroke="#777777" d="M207.52,-142C215.56,-142 223.64,-142 231.59,-142"/>
<polygon fill="#777777" stroke="#777777" points="207.72,-138.5 197.72,-142 207.72,-145.5 207.72,-138.5"/>
</g>
<!-- c -->
<g id="node3" class="node">
<title>c</title>
<path fill="#ff0000" fill-opacity="0.466667" stroke="black" d="M184,-106C184,-106 28,-106 28,-106 22,-106 16,-100 16,-94 16,-94 16,-82 16,-82 16,-76 22,-70 28,-70 28,-70 184,-70 184,-70 190,-70 196,-76 196,-82 196,-82 196,-94 196,-94 196,-100 190,-106 184,-106"/>
<text text-anchor="middle" x="106" y="-84.3" font-family="sans-serif" font-size="14.00">Attachment</text>
</g>
<!-- c2 -->
<g id="node7" class="node">
<title>c2</title>
<path fill="#00ff00" fill-opacity="0.466667" stroke="black" d="M400,-106C400,-106 244,-106 244,-106 238,-106 232,-100 232,-94 232,-94 232,-82 232,-82 232,-76 238,-70 244,-70 244,-70 400,-70 400,-70 406,-70 412,-76 412,-82 412,-82 412,-94 412,-94 412,-100 406,-106 400,-106"/>
<text text-anchor="middle" x="322" y="-84.3" font-family="sans-serif" font-size="14.00">Archive</text>
</g>
<!-- c&#45;&gt;c2 -->
<g id="edge5" class="edge">
<title>c&#45;&gt;c2</title>
<path fill="none" stroke="#777777" d="M207.52,-88C215.56,-88 223.64,-88 231.59,-88"/>
<polygon fill="#777777" stroke="#777777" points="207.72,-84.5 197.72,-88 207.72,-91.5 207.72,-84.5"/>
</g>
<!-- d -->
<g id="node4" class="node">
<title>d</title>
<path fill="#ff0000" fill-opacity="0.466667" stroke="black" d="M184,-52C184,-52 28,-52 28,-52 22,-52 16,-46 16,-40 16,-40 16,-28 16,-28 16,-22 22,-16 28,-16 28,-16 184,-16 184,-16 190,-16 196,-22 196,-28 196,-28 196,-40 196,-40 196,-46 190,-52 184,-52"/>
<text text-anchor="middle" x="106" y="-30.3" font-family="sans-serif" font-size="14.00">EmbeddedFileDataObject</text>
</g>
<!-- d2 -->
<g id="node8" class="node">
<title>d2</title>
<path fill="#00ff00" fill-opacity="0.466667" stroke="black" d="M400,-52C400,-52 244,-52 244,-52 238,-52 232,-46 232,-40 232,-40 232,-28 232,-28 232,-22 238,-16 244,-16 244,-16 400,-16 400,-16 406,-16 412,-22 412,-28 412,-28 412,-40 412,-40 412,-46 406,-52 400,-52"/>
<text text-anchor="middle" x="322" y="-30.3" font-family="sans-serif" font-size="14.00">Photo</text>
</g>
<!-- d&#45;&gt;d2 -->
<g id="edge7" class="edge">
<title>d&#45;&gt;d2</title>
<path fill="none" stroke="#777777" d="M207.52,-34C215.56,-34 223.64,-34 231.59,-34"/>
<polygon fill="#777777" stroke="#777777" points="207.72,-30.5 197.72,-34 207.72,-37.5 207.72,-30.5"/>
</g>
<!-- a2&#45;&gt;b -->
<g id="edge2" class="edge">
<title>a2&#45;&gt;b:ne</title>
<path fill="none" stroke="#777777" d="M221.38,-178.35C211.64,-173.59 202.58,-167.58 195,-160"/>
<polygon fill="#777777" stroke="#777777" points="219.79,-181.48 230.35,-182.27 222.59,-175.06 219.79,-181.48"/>
</g>
<!-- b2&#45;&gt;c -->
<g id="edge4" class="edge">
<title>b2&#45;&gt;c:ne</title>
<path fill="none" stroke="#777777" d="M221.38,-124.35C211.64,-119.59 202.58,-113.58 195,-106"/>
<polygon fill="#777777" stroke="#777777" points="219.79,-127.48 230.35,-128.27 222.59,-121.06 219.79,-127.48"/>
</g>
<!-- c2&#45;&gt;d -->
<g id="edge6" class="edge">
<title>c2&#45;&gt;d:ne</title>
<path fill="none" stroke="#777777" d="M221.38,-70.35C211.64,-65.59 202.58,-59.58 195,-52"/>
<polygon fill="#777777" stroke="#777777" points="219.79,-73.48 230.35,-74.27 222.59,-67.06 219.79,-73.48"/>
</g>
</g>
</svg>
