<?xml version="1.0" encoding="UTF-8" standalone="no"?>
<!DOCTYPE svg PUBLIC "-//W3C//DTD SVG 1.1//EN"
 "http://www.w3.org/Graphics/SVG/1.1/DTD/svg11.dtd">
<!-- Generated by graphviz version 7.1.0 (0)
 -->
<!-- Title: G Pages: 1 -->
<svg width="743pt" height="368pt"
 viewBox="0.00 0.00 743.00 368.00" xmlns="http://www.w3.org/2000/svg" xmlns:xlink="http://www.w3.org/1999/xlink">
<g id="graph0" class="graph" transform="scale(1 1) rotate(0) translate(4 364)">
<title>G</title>
<!-- Images -->
<g id="node1" class="node">
<title>Images</title>
<polygon fill="none" stroke="black" points="433.5,-360 368.5,-360 368.5,-324 433.5,-324 433.5,-360"/>
<text text-anchor="middle" x="401" y="-338.3" font-family="sans-serif" font-size="14.00">Images</text>
</g>
<!-- Go Off! -->
<g id="node2" class="node">
<title>Go Off!</title>
<polygon fill="none" stroke="black" points="706,-198 642,-198 642,-162 706,-162 706,-198"/>
<text text-anchor="middle" x="674" y="-176.3" font-family="sans-serif" font-size="14.00">Go Off!</text>
</g>
<!-- Marty Friedman -->
<g id="node3" class="node">
<title>Marty Friedman</title>
<polygon fill="none" stroke="black" points="735,-90 613,-90 613,-54 735,-54 735,-90"/>
<text text-anchor="middle" x="674" y="-68.3" font-family="sans-serif" font-size="14.00">Marty Friedman</text>
</g>
<!-- Jason Becker -->
<g id="node4" class="node">
<title>Jason Becker</title>
<polygon fill="none" stroke="black" points="724.5,-144 623.5,-144 623.5,-108 724.5,-108 724.5,-144"/>
<text text-anchor="middle" x="674" y="-122.3" font-family="sans-serif" font-size="14.00">Jason Becker</text>
</g>
<!-- Cacophony -->
<g id="node5" class="node">
<title>Cacophony</title>
<polygon fill="none" stroke="black" points="719,-36 629,-36 629,0 719,0 719,-36"/>
<text text-anchor="middle" x="674" y="-14.3" font-family="sans-serif" font-size="14.00">Cacophony</text>
</g>
<!-- http://example.com/Song -->
<g id="node6" class="node">
<title>http://example.com/Song</title>
<path fill="none" stroke="black" d="M172,-198C172,-198 12,-198 12,-198 6,-198 0,-192 0,-186 0,-186 0,-174 0,-174 0,-168 6,-162 12,-162 12,-162 172,-162 172,-162 178,-162 184,-168 184,-174 184,-174 184,-186 184,-186 184,-192 178,-198 172,-198"/>
<text text-anchor="middle" x="92" y="-176.3" font-family="sans-serif" font-size="14.00">http://example.com/Song</text>
</g>
<!-- http://example.com/Song&#45;&gt;Images -->
<g id="edge3" class="edge">
<title>http://example.com/Song&#45;&gt;Images</title>
<path fill="none" stroke="black" d="M111.84,-198.33C132.65,-217.87 167.75,-248.87 202,-270 244.17,-296.02 257.37,-298.25 304,-315 321.08,-321.13 340.26,-326.77 356.97,-331.29"/>
<polygon fill="black" stroke="black" points="356.06,-334.67 366.62,-333.84 357.85,-327.9 356.06,-334.67"/>
<text text-anchor="middle" x="244" y="-310" font-family="sans-serif" font-size="10.00">nie:title</text>
</g>
<!-- nfo:FileDataObject -->
<g id="node7" class="node">
<title>nfo:FileDataObject</title>
<path fill="none" stroke="black" d="M459,-306C459,-306 343,-306 343,-306 337,-306 331,-300 331,-294 331,-294 331,-282 331,-282 331,-276 337,-270 343,-270 343,-270 459,-270 459,-270 465,-270 471,-276 471,-282 471,-282 471,-294 471,-294 471,-300 465,-306 459,-306"/>
<text text-anchor="middle" x="401" y="-284.3" font-family="sans-serif" font-size="14.00">nfo:FileDataObject</text>
</g>
<!-- http://example.com/Song&#45;&gt;nfo:FileDataObject -->
<g id="edge1" class="edge">
<title>http://example.com/Song&#45;&gt;nfo:FileDataObject</title>
<path fill="none" stroke="black" d="M132.21,-198.42C152.78,-207.79 178.52,-219.06 202,-228 246.53,-244.96 258.39,-247.21 304,-261 309.85,-262.77 315.92,-264.56 322.02,-266.34"/>
<polygon fill="black" stroke="black" points="320.99,-269.69 331.57,-269.1 322.93,-262.96 320.99,-269.69"/>
<text text-anchor="middle" x="244" y="-258" font-family="sans-serif" font-size="10.00">rdf:type</text>
</g>
<!-- nmm:MusicPiece -->
<g id="node8" class="node">
<title>nmm:MusicPiece</title>
<path fill="none" stroke="black" d="M453.5,-252C453.5,-252 348.5,-252 348.5,-252 342.5,-252 336.5,-246 336.5,-240 336.5,-240 336.5,-228 336.5,-228 336.5,-222 342.5,-216 348.5,-216 348.5,-216 453.5,-216 453.5,-216 459.5,-216 465.5,-222 465.5,-228 465.5,-228 465.5,-240 465.5,-240 465.5,-246 459.5,-252 453.5,-252"/>
<text text-anchor="middle" x="401" y="-230.3" font-family="sans-serif" font-size="14.00">nmm:MusicPiece</text>
</g>
<!-- http://example.com/Song&#45;&gt;nmm:MusicPiece -->
<g id="edge2" class="edge">
<title>http://example.com/Song&#45;&gt;nmm:MusicPiece</title>
<path fill="none" stroke="black" d="M184.28,-196.06C229.22,-203.96 282.73,-213.37 325.21,-220.85"/>
<polygon fill="black" stroke="black" points="324.38,-224.25 334.83,-222.54 325.59,-217.36 324.38,-224.25"/>
<text text-anchor="middle" x="244" y="-216" font-family="sans-serif" font-size="10.00">rdf:type</text>
</g>
<!-- http://example.com/Album -->
<g id="node9" class="node">
<title>http://example.com/Album</title>
<path fill="none" stroke="black" d="M486,-198C486,-198 316,-198 316,-198 310,-198 304,-192 304,-186 304,-186 304,-174 304,-174 304,-168 310,-162 316,-162 316,-162 486,-162 486,-162 492,-162 498,-168 498,-174 498,-174 498,-186 498,-186 498,-192 492,-198 486,-198"/>
<text text-anchor="middle" x="401" y="-176.3" font-family="sans-serif" font-size="14.00">http://example.com/Album</text>
</g>
<!-- http://example.com/Song&#45;&gt;http://example.com/Album -->
<g id="edge4" class="edge">
<title>http://example.com/Song&#45;&gt;http://example.com/Album</title>
<path fill="none" stroke="black" d="M184.28,-180C218.25,-180 257.11,-180 292.41,-180"/>
<polygon fill="black" stroke="black" points="292.22,-183.5 302.22,-180 292.22,-176.5 292.22,-183.5"/>
<text text-anchor="middle" x="244" y="-183" font-family="sans-serif" font-size="10.00">nmm:musicAlbum</text>
</g>
<!-- http://example.com/Jason -->
<g id="node10" class="node">
<title>http://example.com/Jason</title>
<path fill="none" stroke="black" d="M482,-144C482,-144 320,-144 320,-144 314,-144 308,-138 308,-132 308,-132 308,-120 308,-120 308,-114 314,-108 320,-108 320,-108 482,-108 482,-108 488,-108 494,-114 494,-120 494,-120 494,-132 494,-132 494,-138 488,-144 482,-144"/>
<text text-anchor="middle" x="401" y="-122.3" font-family="sans-serif" font-size="14.00">http://example.com/Jason</text>
</g>
<!-- http://example.com/Song&#45;&gt;http://example.com/Jason -->
<g id="edge5" class="edge">
<title>http://example.com/Song&#45;&gt;http://example.com/Jason</title>
<path fill="none" stroke="black" d="M184.28,-163.94C219.6,-157.73 260.21,-150.59 296.6,-144.19"/>
<polygon fill="black" stroke="black" points="297.01,-147.67 306.26,-142.49 295.8,-140.77 297.01,-147.67"/>
<text text-anchor="middle" x="244" y="-162" font-family="sans-serif" font-size="10.00">nmm:albumArtist</text>
</g>
<!-- http://example.com/Marty -->
<g id="node11" class="node">
<title>http://example.com/Marty</title>
<path fill="none" stroke="black" d="M484,-90C484,-90 318,-90 318,-90 312,-90 306,-84 306,-78 306,-78 306,-66 306,-66 306,-60 312,-54 318,-54 318,-54 484,-54 484,-54 490,-54 496,-60 496,-66 496,-66 496,-78 496,-78 496,-84 490,-90 484,-90"/>
<text text-anchor="middle" x="401" y="-68.3" font-family="sans-serif" font-size="14.00">http://example.com/Marty</text>
</g>
<!-- http://example.com/Song&#45;&gt;http://example.com/Marty -->
<g id="edge6" class="edge">
<title>http://example.com/Song&#45;&gt;http://example.com/Marty</title>
<path fill="none" stroke="black" d="M131.12,-161.53C151.84,-151.83 178.05,-140.1 202,-131 246.41,-114.12 258.46,-112.54 304,-99 310.06,-97.2 316.34,-95.36 322.67,-93.53"/>
<polygon fill="black" stroke="black" points="323.2,-97.02 331.85,-90.9 321.27,-90.29 323.2,-97.02"/>
<text text-anchor="middle" x="244" y="-134" font-family="sans-serif" font-size="10.00">nmm:albumArtist</text>
</g>
<!-- http://example.com/Band -->
<g id="node12" class="node">
<title>http://example.com/Band</title>
<path fill="none" stroke="black" d="M481.5,-36C481.5,-36 320.5,-36 320.5,-36 314.5,-36 308.5,-30 308.5,-24 308.5,-24 308.5,-12 308.5,-12 308.5,-6 314.5,0 320.5,0 320.5,0 481.5,0 481.5,0 487.5,0 493.5,-6 493.5,-12 493.5,-12 493.5,-24 493.5,-24 493.5,-30 487.5,-36 481.5,-36"/>
<text text-anchor="middle" x="401" y="-14.3" font-family="sans-serif" font-size="14.00">http://example.com/Band</text>
</g>
<!-- http://example.com/Song&#45;&gt;http://example.com/Band -->
<g id="edge7" class="edge">
<title>http://example.com/Song&#45;&gt;http://example.com/Band</title>
<path fill="none" stroke="black" d="M111.39,-161.76C132.09,-141.95 167.35,-110.31 202,-89 244.05,-63.13 257.47,-61.5 304,-45 308.99,-43.23 314.16,-41.5 319.39,-39.82"/>
<polygon fill="black" stroke="black" points="320.23,-43.23 328.74,-36.91 318.15,-36.54 320.23,-43.23"/>
<text text-anchor="middle" x="244" y="-92" font-family="sans-serif" font-size="10.00">nmm:performer</text>
</g>
<!-- http://example.com/Album&#45;&gt;Go Off! -->
<g id="edge8" class="edge">
<title>http://example.com/Album&#45;&gt;Go Off!</title>
<path fill="none" stroke="black" d="M498.31,-180C543.41,-180 594.86,-180 630.18,-180"/>
<polygon fill="black" stroke="black" points="629.99,-183.5 639.99,-180 629.99,-176.5 629.99,-183.5"/>
<text text-anchor="middle" x="555.5" y="-183" font-family="sans-serif" font-size="10.00">nie:title</text>
</g>
<!-- http://example.com/Jason&#45;&gt;Jason Becker -->
<g id="edge9" class="edge">
<title>http://example.com/Jason&#45;&gt;Jason Becker</title>
<path fill="none" stroke="black" d="M494.13,-126C533,-126 577.2,-126 611.94,-126"/>
<polygon fill="black" stroke="black" points="611.82,-129.5 621.82,-126 611.82,-122.5 611.82,-129.5"/>
<text text-anchor="middle" x="555.5" y="-129" font-family="sans-serif" font-size="10.00">nmm:artistName</text>
</g>
<!-- http://example.com/Marty&#45;&gt;Marty Friedman -->
<g id="edge10" class="edge">
<title>http://example.com/Marty&#45;&gt;Marty Friedman</title>
<path fill="none" stroke="black" d="M496.4,-72C530.97,-72 569.49,-72 601.7,-72"/>
<polygon fill="black" stroke="black" points="601.3,-75.5 611.3,-72 601.3,-68.5 601.3,-75.5"/>
<text text-anchor="middle" x="555.5" y="-75" font-family="sans-serif" font-size="10.00">nmm:artistName</text>
</g>
<!-- http://example.com/Band&#45;&gt;Cacophony -->
<g id="edge11" class="edge">
<title>http://example.com/Band&#45;&gt;Cacophony</title>
<path fill="none" stroke="black" d="M493.75,-18C534.9,-18 582.08,-18 617.71,-18"/>
<polygon fill="black" stroke="black" points="617.33,-21.5 627.33,-18 617.33,-14.5 617.33,-21.5"/>
<text text-anchor="middle" x="555.5" y="-21" font-family="sans-serif" font-size="10.00">nmm:artistName</text>
</g>
</g>
</svg>
