<?xml version="1.0" encoding="UTF-8" standalone="no"?>
<!DOCTYPE svg PUBLIC "-//W3C//DTD SVG 1.1//EN"
 "http://www.w3.org/Graphics/SVG/1.1/DTD/svg11.dtd">
<!-- Generated by graphviz version 7.1.0 (0)
 -->
<!-- Title: G Pages: 1 -->
<svg width="213pt" height="44pt"
 viewBox="0.00 0.00 213.00 44.00" xmlns="http://www.w3.org/2000/svg" xmlns:xlink="http://www.w3.org/1999/xlink">
<g id="graph0" class="graph" transform="scale(1 1) rotate(0) translate(4 40)">
<title>G</title>
<!-- Object -->
<g id="node1" class="node">
<title>Object</title>
<polygon fill="none" stroke="black" points="205,-36 145,-36 145,0 205,0 205,-36"/>
<text text-anchor="middle" x="175" y="-14.3" font-family="sans-serif" font-size="14.00">Object</text>
</g>
<!-- Subject -->
<g id="node2" class="node">
<title>Subject</title>
<path fill="none" stroke="black" d="M53,-36C53,-36 12,-36 12,-36 6,-36 0,-30 0,-24 0,-24 0,-12 0,-12 0,-6 6,0 12,0 12,0 53,0 53,0 59,0 65,-6 65,-12 65,-12 65,-24 65,-24 65,-30 59,-36 53,-36"/>
<text text-anchor="middle" x="32.5" y="-14.3" font-family="sans-serif" font-size="14.00">Subject</text>
</g>
<!-- Subject&#45;&gt;Object -->
<g id="edge1" class="edge">
<title>Subject&#45;&gt;Object</title>
<path fill="none" stroke="black" d="M65.38,-18C85.47,-18 111.59,-18 133.18,-18"/>
<polygon fill="black" stroke="black" points="133.13,-21.5 143.13,-18 133.13,-14.5 133.13,-21.5"/>
<text text-anchor="middle" x="105" y="-21" font-family="sans-serif" font-size="10.00">Predicate</text>
</g>
</g>
</svg>
